# xmcd
# 
# Track frame offsets:
#     150
#     22147
#     46210
#     56775
#     70995
#     97397
#     114687
#     144357
#     156165
#     176732
# 
# Disc length: 2647
# 
# Revision: 8
# Processed by: cddbd v1.5.2PL0 Copyright (c) Steve Scherf et al.
# Submitted via: BonkEnc v1.0.8
# 
DISCID=960a550a
DTITLE=Johnny Winter - 3rd Degree
DYEAR=1986
DGENRE=Blues Rock
TTITLE0=Mojo Boogie
TTITLE1=Love, Life And Money
TTITLE2=Evil On My Mind
TTITLE3=See See Baby
TTITLE4=Tin Pan Alley
TTITLE5=I'm Good
TTITLE6=Third Degree
TTITLE7=Shake Your Moneymaker
TTITLE8=Bad Girl Blues
TTITLE9=Broke And Lonely
EXTD=YEAR: 1986
EXTT0=
EXTT1=
EXTT2=
EXTT3=
EXTT4=
EXTT5=
EXTT6=
EXTT7=
EXTT8=
EXTT9=
PLAYORDER=
